{
    "asset" : {
        "generator" : "Khronos glTF Blender I/O v1.6.16",
        "version" : "2.0"
    },
    "scene" : 0,
    "scenes" : [
        {
            "name" : "Scene",
            "nodes" : [
                0,
                1,
                2
            ]
        }
    ],
    "nodes" : [
        {
            "name" : "Light",
            "rotation" : [
                0.16907575726509094,
                0.7558803558349609,
                -0.27217137813568115,
                0.570947527885437
            ],
            "translation" : [
                4.076245307922363,
                5.903861999511719,
                -1.0054539442062378
            ]
        },
        {
            "name" : "Camera",
            "rotation" : [
                0.483536034822464,
                0.33687159419059753,
                -0.20870360732078552,
                0.7804827094078064
            ],
            "translation" : [
                7.358891487121582,
                4.958309173583984,
                6.925790786743164
            ]
        },
        {
            "mesh" : 0,
            "name" : "M",
            "scale" : [
                29,
                1,
                29
            ],
            "translation" : [
                -8.115795135498047,
                0.04460805654525757,
                8.207779884338379
            ]
        }
    ],
    "materials" : [
        {
            "doubleSided" : true,
            "name" : "SVGMat",
            "pbrMetallicRoughness" : {
                "baseColorFactor" : [
                    0,
                    1,
                    0.6631276607513428,
                    1
                ],
                "metallicFactor" : 0,
                "roughnessFactor" : 0.5
            }
        }
    ],
    "meshes" : [
        {
            "name" : "M",
            "primitives" : [
                {
                    "attributes" : {
                        "POSITION" : 0,
                        "NORMAL" : 1,
                        "TEXCOORD_0" : 2
                    },
                    "indices" : 3,
                    "material" : 0
                }
            ]
        }
    ],
    "accessors" : [
        {
            "bufferView" : 0,
            "componentType" : 5126,
            "count" : 64,
            "max" : [
                0.47824662923812866,
                2,
                -0.15420785546302795
            ],
            "min" : [
                0.08614247292280197,
                -2,
                -0.4101915657520294
            ],
            "type" : "VEC3"
        },
        {
            "bufferView" : 1,
            "componentType" : 5126,
            "count" : 64,
            "type" : "VEC3"
        },
        {
            "bufferView" : 2,
            "componentType" : 5126,
            "count" : 64,
            "type" : "VEC2"
        },
        {
            "bufferView" : 3,
            "componentType" : 5123,
            "count" : 144,
            "type" : "SCALAR"
        }
    ],
    "bufferViews" : [
        {
            "buffer" : 0,
            "byteLength" : 768,
            "byteOffset" : 0
        },
        {
            "buffer" : 0,
            "byteLength" : 768,
            "byteOffset" : 768
        },
        {
            "buffer" : 0,
            "byteLength" : 512,
            "byteOffset" : 1536
        },
        {
            "buffer" : 0,
            "byteLength" : 288,
            "byteOffset" : 2048
        }
    ],
    "buffers" : [
        {
            "byteLength" : 2336,
            "uri" : "data:application/octet-stream;base64,"
        }
    ]
}
